:SAMPLES-PER-SECOND 30
:FULLY-SPECIFIED
:DEGREES
1
root  -73.377 41.6673 -3.16135 49.8856 88.5943 48.5439
RightUpLeg  -1.30204 -7.83813 -4.18018
RightLeg  5.96678 -6.1383 3.40042
RightFoot  -4.17096 0.103091 -2.11101
RightToes  0.000482159 0.542163 -0.142577
Spine  8.89138 1.12088 -1.46613
Spine1  -3.54264 0.744064 2.38644
HEad  -11.879 -0.857498 1.17816
LeftShoulder1  1.57873 -3.25817 -16.7659
LeftArm  -20.3145 19.0305 -14.4558
LeftForeArm  21.2694 -4.95649 -0.0774861
LeftHand  -0.25398 0.0180481 5.50724
RightShoulder  1.01182 1.05053 15.4429
RightArm  -23.2553 -13.0963 9.78536
RightForeArm  0.53084 7.73328 2.31606
RightHand  -1.10137 2.04453 -17.3209
LeftUpLeg  -2.05516 3.37674 1.3099
LeftLeg  2.13197 8.27484 -3.31626
LeftFoot  -0.57708 -0.0984929 1.12725
LeftToes  1.06245e-005 4.65855e-005 -8.18503e-006
2
root  -73.3691 41.6673 -3.16458 49.013 88.5848 47.683
RightUpLeg  -1.25494 -7.82476 -4.17951
RightLeg  5.90846 -6.10199 3.40288
RightFoot  -4.15997 0.103644 -2.11962
RightToes  0.000482159 0.542163 -0.142577
Spine  8.91834 1.1142 -1.47804
Spine1  -3.54684 0.728957 2.42905
HEad  -11.7773 -0.674672 1.2585
LeftShoulder1  1.57873 -3.25689 -16.8228
LeftArm  -20.2881 19.0598 -14.479
LeftForeArm  21.2243 -4.88937 -0.0770476
LeftHand  -0.25398 0.0180481 5.50724
RightShoulder  1.01457 1.06693 15.4217
RightArm  -23.3726 -13.036 9.86087
RightForeArm  1.1153 7.63866 2.24266
RightHand  -1.12845 2.34219 -17.084
LeftUpLeg  -2.03498 3.38723 1.31354
LeftLeg  2.15039 8.29299 -3.31232
LeftFoot  -0.606286 -0.0998066 1.14767
LeftToes  1.06245e-005 4.65855e-005 -8.18503e-006
3
root  -73.3573 41.6673 -3.16816 46.8997 88.5479 45.5461
RightUpLeg  -1.2472 -7.80294 -4.17581
RightLeg  5.84831 -6.02362 3.40662
RightFoot  -4.14045 0.103069 -2.11067
RightToes  0.000482159 0.542163 -0.142577
Spine  8.98374 1.12515 -1.49344
Spine1  -3.63378 0.731531 2.47623
HEad  -11.5722 -0.424343 1.40622
LeftShoulder1  1.57873 -3.24051 -16.8588
LeftArm  -20.3213 19.0776 -14.5824
LeftForeArm  21.1912 -4.72096 -0.0404583
LeftHand  -0.25398 0.0180481 5.50724
RightShoulder  1.02637 1.11162 15.4663
RightArm  -23.5024 -12.9872 9.90408
RightForeArm  1.25778 7.52119 2.18368
RightHand  -1.12833 2.40818 -16.9454
LeftUpLeg  -2.03638 3.40607 1.32413
LeftLeg  2.1562 8.34126 -3.31999
LeftFoot  -0.637628 -0.0998712 1.14868
LeftToes  1.06245e-005 4.65855e-005 -8.18503e-006
4
root  -73.3454 41.6668 -3.16912 44.8678 88.5004 43.4443
RightUpLeg  -1.30721 -7.78543 -4.16219
RightLeg  5.82967 -5.96877 3.40682
RightFoot  -4.14957 0.10203 -2.09451
RightToes  0.000482159 0.542163 -0.142577
Spine  8.9954 1.15389 -1.51468
Spine1  -3.70709 0.755284 2.50784
HEad  -11.7054 -0.76657 1.17705
LeftShoulder1  1.57873 -3.20916 -16.8217
LeftArm  -20.4064 19.0751 -14.7528
LeftForeArm  21.2152 -4.58422 0.00648046
LeftHand  -0.25398 0.0180481 5.50724
RightShoulder  1.0469 1.18811 15.5489
RightArm  -23.568 -13.0486 9.89405
RightForeArm  0.779682 7.46028 2.17408
RightHand  -1.09425 2.12578 -17.0335
LeftUpLeg  -2.08498 3.43238 1.34275
LeftLeg  2.15659 8.377 -3.34732
LeftFoot  -0.660722 -0.0972437 1.10783
LeftToes  1.06245e-005 4.65855e-005 -8.18503e-006
5
root  -73.3303 41.6652 -3.16905 44.5036 88.4893 43.0123
RightUpLeg  -1.35562 -7.77977 -4.14836
RightLeg  5.82638 -5.98462 3.40342
RightFoot  -4.18704 0.101741 -2.09
RightToes  0.000482159 0.542163 -0.142577
Spine  8.90147 1.17791 -1.58369
Spine1  -3.62687 0.759789 2.61354
HEad  -12.0904 -1.30924 0.704489
LeftShoulder1  1.58116 -3.19634 -16.8015
LeftArm  -20.4877 19.0843 -14.901
LeftForeArm  21.2972 -4.57753 0.0324616
LeftHand  -0.25398 0.0180481 5.50724
RightShoulder  1.06074 1.24973 15.5517
RightArm  -23.5819 -13.1812 9.90541
RightForeArm  0.607707 7.43583 2.1609
RightHand  -1.07635 1.96922 -17.1
LeftUpLeg  -2.1403 3.45642 1.36109
LeftLeg  2.17262 8.35436 -3.37661
LeftFoot  -0.683626 -0.0948459 1.07056
LeftToes  1.06245e-005 4.65855e-005 -8.18503e-006
6
root  -73.3137 41.664 -3.16867 45.3133 88.5031 43.7753
RightUpLeg  -1.37215 -7.78061 -4.1471
RightLeg  5.81872 -6.01969 3.39649
RightFoot  -4.21548 0.101112 -2.08373
RightToes  0.000482159 0.542163 -0.142577
Spine  8.75933 1.19395 -1.71285
Spine1  -3.42887 0.734213 2.83185
HEad  -11.9897 -0.788225 0.793701
LeftShoulder1  1.59938 -3.25034 -16.9132
LeftArm  -20.5131 19.1323 -14.9216
LeftForeArm  21.3397 -4.63331 0.0369112
LeftHand  -0.25398 0.0180481 5.50724
RightShoulder  1.04856 1.22035 15.4209
RightArm  -23.6016 -13.2339 10.0065
RightForeArm  1.17427 7.38219 2.10883
RightHand  -1.09308 2.15502 -16.9537
LeftUpLeg  -2.17909 3.45664 1.35812
LeftLeg  2.19754 8.32545 -3.38412
LeftFoot  -0.704735 -0.0950961 1.07445
LeftToes  1.06245e-005 4.65855e-005 -8.18503e-006
7
root  -73.3004 41.6632 -3.16879 45.5058 88.4762 43.9093
RightUpLeg  -1.42973 -7.77389 -4.16062
RightLeg  5.83576 -5.99718 3.37885
RightFoot  -4.2303 0.0984149 -2.05642
RightToes  0.000482159 0.542163 -0.142577
Spine  8.65701 1.2122 -1.82391
Spine1  -3.29524 0.719843 2.99759
HEad  -11.3832 0.521025 1.4516
LeftShoulder1  1.64579 -3.39711 -17.0995
LeftArm  -20.4386 19.2432 -14.7993
LeftForeArm  21.2145 -4.65891 0.0191547
LeftHand  -0.25398 0.0180481 5.50724
RightShoulder  1.01687 1.10537 15.2743
RightArm  -23.6823 -13.1493 10.1662
RightForeArm  1.93034 7.27663 2.03306
RightHand  -1.10967 2.39309 -16.7026
LeftUpLeg  -2.2259 3.42804 1.32272
LeftLeg  2.20846 8.3786 -3.37229
LeftFoot  -0.720298 -0.0965799 1.09752
LeftToes  1.06245e-005 4.65855e-005 -8.18503e-006
8
root  -73.2885 41.663 -3.16813 44.9956 88.4182 43.342
RightUpLeg  -1.50398 -7.75828 -4.17448
RightLeg  5.87676 -5.9503 3.35423
RightFoot  -4.26189 0.0953524 -2.02412
RightToes  0.000482159 0.542163 -0.142577
Spine  8.63649 1.22103 -1.82278
Spine1  -3.29951 0.738838 2.93322
HEad  -10.8253 1.52687 2.16296
LeftShoulder1  1.69266 -3.57728 -17.164
LeftArm  -20.298 19.3906 -14.6711
LeftForeArm  20.986 -4.69331 -0.0268446
LeftHand  -0.25398 0.0180481 5.50724
RightShoulder  0.99294 0.998818 15.2633
RightArm  -23.784 -13.0619 10.271
RightForeArm  2.25561 7.1895 1.97718
RightHand  -1.10222 2.409 -16.562
LeftUpLeg  -2.26075 3.40482 1.28616
LeftLeg  2.20314 8.4616 -3.3663
LeftFoot  -0.739924 -0.0971505 1.10638
LeftToes  1.06245e-005 4.65855e-005 -8.18503e-006
9
root  -73.2699 41.663 -3.16304 45.428 88.4285 43.798
RightUpLeg  -1.4339 -7.7529 -4.17269
RightLeg  5.85957 -5.97469 3.35381
RightFoot  -4.30309 0.0941708 -2.0214
RightToes  0.000482159 0.542163 -0.142577
Spine  8.72643 1.20984 -1.73595
Spine1  -3.35503 0.761172 2.74362
HEad  -11.0044 1.05986 2.12951
LeftShoulder1  1.70453 -3.66198 -17.039
LeftArm  -20.2214 19.4494 -14.706
LeftForeArm  20.9221 -4.78684 -0.0759114
LeftHand  -0.25398 0.0180481 5.50724
RightShoulder  0.981624 0.927222 15.373
RightArm  -23.7546 -13.0964 10.2334
RightForeArm  2.10223 7.21876 1.99339
RightHand  -1.08859 2.29372 -16.5956
LeftUpLeg  -2.20548 3.42615 1.29906
LeftLeg  2.20715 8.4224 -3.37516
LeftFoot  -0.776901 -0.0972301 1.10762
LeftToes  1.06245e-005 4.65855e-005 -8.18503e-006
10
root  -73.2451 41.6628 -3.15735 47.1074 88.5297 45.5828
RightUpLeg  -1.20268 -7.77495 -4.16313
RightLeg  5.75188 -6.05398 3.40067
RightFoot  -4.31503 0.0950093 -2.05
RightToes  0.000482159 0.542163 -0.142577
Spine  8.91239 1.2049 -1.70761
Spine1  -3.37088 0.759823 2.71477
HEad  -11.426 0.101082 1.70905
LeftShoulder1  1.67341 -3.57312 -16.8846
LeftArm  -20.2842 19.3107 -14.906
LeftForeArm  21.1336 -4.86267 -0.0886799
LeftHand  -0.25398 0.0180481 5.50724
RightShoulder  0.95622 0.799119 15.4471
RightArm  -23.5595 -13.1484 10.1163
RightForeArm  1.74751 7.34754 2.08577
RightHand  -1.0862 2.22646 -16.6988
LeftUpLeg  -2.07163 3.4768 1.35779
LeftLeg  2.23872 8.26043 -3.37883
LeftFoot  -0.829238 -0.0973543 1.11362
LeftToes  1.06245e-005 4.65855e-005 -8.18503e-006
11
root  -73.223 41.6619 -3.15499 48.3245 88.6015 46.8555
RightUpLeg  -1.05441 -7.82303 -4.17837
RightLeg  5.67962 -6.05688 3.46984
RightFoot  -4.31599 0.0955682 -2.07375
RightToes  0.000482159 0.542163 -0.142577
Spine  9.07915 1.23685 -1.82442
Spine1  -3.3528 0.751642 2.91647
HEad  -11.3707 -0.000524618 1.6449
LeftShoulder1  1.63288 -3.40384 -16.8731
LeftArm  -20.3808 19.0733 -15.0749
LeftForeArm  21.3606 -4.847 -0.0754619
LeftHand  -0.25398 0.0180481 5.50724
RightShoulder  0.912648 0.605817 15.4294
RightArm  -23.4086 -13.0587 10.0378
RightForeArm  1.43922 7.43153 2.16933
RightHand  -1.09014 2.21937 -16.7726
LeftUpLeg  -1.99977 3.49811 1.39265
LeftLeg  2.28114 8.16342 -3.36497
LeftFoot  -0.887683 -0.095598 1.1013
LeftToes  1.06245e-005 4.65855e-005 -8.18503e-006
12
root  -73.2055 41.6592 -3.1563 47.639 88.5492 46.0866
RightUpLeg  -1.15998 -7.88985 -4.23804
RightLeg  5.7619 -5.92226 3.52372
RightFoot  -4.37194 0.0943408 -2.06881
RightToes  0.000482159 0.542163 -0.142577
Spine  9.10123 1.29082 -1.98706
Spine1  -3.33408 0.766969 3.10759
HEad  -10.9822 0.566272 1.94103
LeftShoulder1  1.63019 -3.35754 -17.0013
LeftArm  -20.3668 18.9639 -15.03
LeftForeArm  21.3113 -4.79477 -0.0795214
LeftHand  -0.25398 0.0180481 5.50724
RightShoulder  0.897449 0.535468 15.4402
RightArm  -23.4543 -12.9344 9.96112
RightForeArm  1.25258 7.3932 2.16762
RightHand  -1.09642 2.22804 -16.8485
LeftUpLeg  -2.06753 3.4709 1.35995
LeftLeg  2.30652 8.23919 -3.3552
LeftFoot  -0.955439 -0.0919025 1.05653
LeftToes  1.06245e-005 4.65855e-005 -8.18503e-006
13
root  -73.1846 41.6545 -3.16145 45.9187 88.4247 44.2286
RightUpLeg  -1.35722 -7.96394 -4.31709
RightLeg  5.90744 -5.738 3.56112
RightFoot  -4.47855 0.0922773 -2.04955
RightToes  0.000482159 0.542163 -0.142577
Spine  8.99448 1.32883 -2.0246
Spine1  -3.29876 0.809429 3.07966
HEad  -10.7097 0.986688 2.18318
LeftShoulder1  1.67743 -3.51263 -17.1651
LeftArm  -20.2715 19.0391 -14.8049
LeftForeArm  21.0791 -4.76498 -0.095794
LeftHand  -0.25398 0.0180481 5.50724
RightShoulder  0.946342 0.734716 15.56
RightArm  -23.528 -13.0261 9.74996
RightForeArm  1.07347 7.3358 2.12881
RightHand  -1.11052 2.26774 -16.9752
LeftUpLeg  -2.1714 3.44171 1.30001
LeftLeg  2.31211 8.38676 -3.37316
LeftFoot  -1.03846 -0.0890316 1.02396
LeftToes  1.06245e-005 4.65855e-005 -8.18503e-006
